<svg width="211" height="55" viewBox="0 0 211 55" fill="none" xmlns="http://www.w3.org/2000/svg">
<path d="M139.07 0.052002H0.820312V55H139.07V0.052002Z" fill="#EF1A24"/>
<path d="M210.355 0H142.85V54.9455H210.355V0Z" fill="black"/>
<path d="M5.13354 50.3188V4.6217H16.1436L19.8893 27.2473L23.5215 4.6217H34.4181V50.3188H25.5646V30.1452L22.2729 50.3188H17.6192L13.76 29.9223V50.3188H5.13354Z" fill="white"/>
<path d="M33.9419 50.3188L34.4181 44.9689L40.7744 4.6217H51.7845L57.6868 44.0773L58.163 50.3188H50.4224L49.6279 43.7429H43.0445L42.023 50.3188H33.9419Z" fill="white"/>
<path d="M57.6868 50.3188V4.6217H66.7672C80.5959 4.6217 86.3874 23.012 75.4674 32.6431L80.9555 50.3188H72.4425L68.4698 35.9409H66.7672V50.3188H57.6868Z" fill="white"/>
<path d="M77.8907 4.6217L85.4956 50.3188H95.1436L103.089 4.6217H94.4626L90.1494 31.7056L86.2902 4.6217H77.8907Z" fill="white"/>
<path d="M117.958 50.3188H101.84V4.6217H117.958V12.9809H110.24V23.012H117.958V31.7056H110.24V41.8481H117.958V50.3188Z" fill="white"/>
<path d="M119.207 4.6217V50.3188H134.417V41.8481H127.493V4.6217H119.207Z" fill="white"/>
<path d="M66.7672 12.981V27.8047C73.9859 27.0418 73.6662 14.3774 66.7672 12.981Z" fill="#EF1A24"/>
<path d="M46.3362 17.1049L44.4066 35.941H48.4928L46.3362 17.1049Z" fill="#EF1A24"/>
<path d="M147.443 4.6217V50.3188H157.966V31.7056H164.449V50.3188H175.224V4.6217H164.449V21.8579H157.966V4.6217H147.443Z" fill="white"/>
<path d="M206.204 27.7392C206.204 34.6761 205.624 41.7899 202.712 46.1033C200.158 49.8847 195.523 51.3108 191.809 51.3108C187.397 51.3108 182.556 49.1132 179.915 43.9958C177.797 39.8913 177.413 33.5333 177.413 27.7392C177.413 21.4093 177.865 14.3762 180.345 10.1416C182.965 5.66731 187.724 4.16766 191.809 4.16766C195.463 4.16766 200.287 5.46185 202.826 9.13534C205.81 13.4543 206.204 20.7045 206.204 27.7392Z" fill="white"/>
<path d="M195.949 27.5312C195.949 31.0007 195.943 36.015 195.247 38.3579C194.493 40.8982 192.958 40.79 191.77 40.79C190.864 40.79 189.521 40.3233 188.839 38.7606C187.802 36.3815 187.675 31.8958 187.675 27.5312C187.675 24.3637 187.735 19.971 188.327 17.7065C189.086 14.8012 190.738 14.3138 192.022 14.3138C193.144 14.3138 194.498 14.7348 195.243 17.0291C196.016 19.4079 195.949 23.8502 195.949 27.5312Z" fill="black"/>
<path d="M191.556 37.0682L203.089 54.9455H210.355V51.9478L200.564 37.0682H191.556Z" fill="white"/>
</svg>
